<svg xmlns="http://www.w3.org/2000/svg" viewBox="0 0 120 120" width="120" height="120" role="img" aria-label="Bunny">
  <!-- ears -->
  <ellipse cx="38" cy="28" rx="12" ry="34" fill="#ffffff" stroke="#ffb6c1" stroke-width="2"/>
  <ellipse cx="82" cy="28" rx="12" ry="34" fill="#ffffff" stroke="#ffb6c1" stroke-width="2"/>
  <ellipse cx="38" cy="28" rx="6" ry="22" fill="#ffb6c1"/>
  <ellipse cx="82" cy="28" rx="6" ry="22" fill="#ffb6c1"/>
  <!-- head -->
  <ellipse cx="60" cy="72" rx="36" ry="32" fill="#ffffff" stroke="#ffb6c1" stroke-width="2"/>
  <!-- eyes -->
  <ellipse cx="48" cy="70" rx="4" ry="5" fill="#333"/>
  <ellipse cx="72" cy="70" rx="4" ry="5" fill="#333"/>
  <circle cx="49" cy="68" r="1.5" fill="#fff"/>
  <circle cx="73" cy="68" r="1.5" fill="#fff"/>
  <!-- nose -->
  <ellipse cx="60" cy="80" rx="3" ry="2.5" fill="#ffb6c1"/>
  <!-- mouth -->
  <path d="M60 82 Q54 88 48 84" fill="none" stroke="#ffb6c1" stroke-width="1.5"/>
  <path d="M60 82 Q66 88 72 84" fill="none" stroke="#ffb6c1" stroke-width="1.5"/>
  <!-- blush -->
  <ellipse cx="40" cy="78" rx="6" ry="3" fill="#ffcce0" opacity="0.8"/>
  <ellipse cx="80" cy="78" rx="6" ry="3" fill="#ffcce0" opacity="0.8"/>
</svg>
