<svg xmlns="http://www.w3.org/2000/svg" viewBox="0 0 130 190" width="130" height="190" role="img" aria-label="Dog and bear">
  <rect width="130" height="190" fill="#fffaf8" rx="8"/>
  <!-- shiba dog -->
  <g transform="translate(16,12) scale(2.3)">
    <ellipse cx="14" cy="18" rx="11" ry="10" fill="#f5c16c" stroke="#b8860b" stroke-width="0.5"/>
    <ellipse cx="5" cy="10" rx="5" ry="7" fill="#fff" stroke="#b8860b" stroke-width="0.4"/>
    <ellipse cx="23" cy="10" rx="5" ry="7" fill="#fff" stroke="#b8860b" stroke-width="0.4"/>
    <ellipse cx="10" cy="17" rx="1.3" ry="1.6" fill="#333"/>
    <ellipse cx="18" cy="17" rx="1.3" ry="1.6" fill="#333"/>
    <ellipse cx="14" cy="21" rx="2.5" ry="2" fill="#fff"/>
    <ellipse cx="14" cy="20.5" rx="1" ry="0.8" fill="#333"/>
  </g>
  <!-- bear -->
  <g transform="translate(18,108) scale(2.3)">
    <ellipse cx="14" cy="19" rx="12" ry="11" fill="#c68c53" stroke="#8b5a2b" stroke-width="0.5"/>
    <circle cx="5" cy="9" r="5" fill="#c68c53" stroke="#8b5a2b" stroke-width="0.4"/>
    <circle cx="23" cy="9" r="5" fill="#c68c53" stroke="#8b5a2b" stroke-width="0.4"/>
    <circle cx="5" cy="9" r="2.5" fill="#ffb6c1"/>
    <circle cx="23" cy="9" r="2.5" fill="#ffb6c1"/>
    <ellipse cx="10" cy="18" rx="1.3" ry="1.6" fill="#333"/>
    <ellipse cx="18" cy="18" rx="1.3" ry="1.6" fill="#333"/>
    <ellipse cx="14" cy="22" rx="2.5" ry="2" fill="#5c3317"/>
  </g>
</svg>
