<svg xmlns="http://www.w3.org/2000/svg" viewBox="0 0 130 190" width="130" height="190" role="img" aria-label="Hello Kitty and cat">
  <rect width="130" height="190" fill="#fffaf8" rx="8"/>
  <!-- Hello Kitty -->
  <g transform="translate(18,12) scale(2.4)">
    <ellipse cx="14" cy="18" rx="12" ry="11" fill="#fff" stroke="#555" stroke-width="0.6"/>
    <ellipse cx="4" cy="10" rx="4" ry="5" fill="#fff" stroke="#555" stroke-width="0.5"/>
    <ellipse cx="24" cy="10" rx="4" ry="5" fill="#fff" stroke="#555" stroke-width="0.5"/>
    <ellipse cx="6" cy="8" rx="5" ry="3" fill="#e60026"/>
    <ellipse cx="10" cy="17" rx="1.2" ry="1.5" fill="#333"/>
    <ellipse cx="18" cy="17" rx="1.2" ry="1.5" fill="#333"/>
    <ellipse cx="14" cy="21" rx="2" ry="1" fill="#ffb6c1"/>
    <line x1="14" y1="21" x2="14" y2="23" stroke="#ffb6c1" stroke-width="0.8"/>
    <line x1="2" y1="19" x2="0" y2="19" stroke="#333" stroke-width="0.5"/>
    <line x1="26" y1="19" x2="28" y2="19" stroke="#333" stroke-width="0.5"/>
  </g>
  <!-- orange cat -->
  <g transform="translate(16,108) scale(2.3)">
    <ellipse cx="14" cy="18" rx="11" ry="10" fill="#ff9f43" stroke="#cc6a00" stroke-width="0.5"/>
    <polygon points="4,12 8,2 12,12" fill="#ff9f43" stroke="#cc6a00" stroke-width="0.4"/>
    <polygon points="24,12 20,2 16,12" fill="#ff9f43" stroke="#cc6a00" stroke-width="0.4"/>
    <ellipse cx="10" cy="17" rx="1.3" ry="1.6" fill="#333"/>
    <ellipse cx="18" cy="17" rx="1.3" ry="1.6" fill="#333"/>
    <path d="M12 20 Q14 21 16 20" fill="none" stroke="#333" stroke-width="0.6"/>
    <line x1="8" y1="20" x2="5" y2="19" stroke="#333" stroke-width="0.4"/>
    <line x1="20" y1="20" x2="23" y2="19" stroke="#333" stroke-width="0.4"/>
  </g>
</svg>
