<svg xmlns="http://www.w3.org/2000/svg" viewBox="0 0 440 72" width="440" height="72" role="img" aria-label="pingzi">
  <defs>
    <style>
      .px { fill: #ff69b4; }
      .sh { fill: #ffb6c1; }
    </style>
  </defs>
  <!-- p -->
  <rect class="sh" x="4" y="52" width="8" height="8"/><rect class="px" x="0" y="0" width="8" height="8"/><rect class="px" x="8" y="0" width="8" height="8"/><rect class="px" x="16" y="0" width="8" height="8"/><rect class="px" x="24" y="0" width="8" height="8"/>
  <rect class="px" x="0" y="8" width="8" height="8"/>
  <rect class="px" x="0" y="16" width="8" height="8"/><rect class="px" x="8" y="16" width="8" height="8"/><rect class="px" x="16" y="16" width="8" height="8"/><rect class="px" x="24" y="16" width="8" height="8"/>
  <rect class="px" x="0" y="24" width="8" height="8"/>
  <rect class="px" x="0" y="32" width="8" height="8"/>
  <rect class="px" x="0" y="40" width="8" height="8"/>
  <rect class="px" x="0" y="48" width="8" height="8"/>
  <!-- i -->
  <rect class="px" x="48" y="0" width="8" height="8"/>
  <rect class="px" x="48" y="8" width="8" height="8"/>
  <rect class="px" x="48" y="16" width="8" height="8"/>
  <rect class="px" x="48" y="24" width="8" height="8"/>
  <rect class="px" x="48" y="32" width="8" height="8"/>
  <rect class="px" x="48" y="40" width="8" height="8"/>
  <rect class="px" x="48" y="48" width="8" height="8"/>
  <rect class="px" x="48" y="56" width="8" height="8"/>
  <!-- n -->
  <rect class="px" x="72" y="0" width="8" height="8"/>
  <rect class="px" x="72" y="8" width="8" height="8"/><rect class="px" x="80" y="8" width="8" height="8"/>
  <rect class="px" x="72" y="16" width="8" height="8"/><rect class="px" x="88" y="16" width="8" height="8"/>
  <rect class="px" x="72" y="24" width="8" height="8"/><rect class="px" x="96" y="24" width="8" height="8"/>
  <rect class="px" x="72" y="32" width="8" height="8"/><rect class="px" x="104" y="32" width="8" height="8"/>
  <rect class="px" x="72" y="40" width="8" height="8"/><rect class="px" x="112" y="40" width="8" height="8"/>
  <rect class="px" x="72" y="48" width="8" height="8"/>
  <rect class="px" x="72" y="56" width="8" height="8"/>
  <!-- g -->
  <rect class="px" x="128" y="8" width="8" height="8"/><rect class="px" x="136" y="8" width="8" height="8"/><rect class="px" x="144" y="8" width="8" height="8"/><rect class="px" x="152" y="8" width="8" height="8"/>
  <rect class="px" x="128" y="16" width="8" height="8"/>
  <rect class="px" x="128" y="24" width="8" height="8"/><rect class="px" x="136" y="24" width="8" height="8"/><rect class="px" x="144" y="24" width="8" height="8"/><rect class="px" x="152" y="24" width="8" height="8"/>
  <rect class="px" x="128" y="32" width="8" height="8"/><rect class="px" x="152" y="32" width="8" height="8"/>
  <rect class="px" x="128" y="40" width="8" height="8"/><rect class="px" x="152" y="40" width="8" height="8"/>
  <rect class="px" x="136" y="48" width="8" height="8"/><rect class="px" x="144" y="48" width="8" height="8"/><rect class="px" x="152" y="48" width="8" height="8"/>
  <!-- z -->
  <rect class="px" x="176" y="8" width="8" height="8"/><rect class="px" x="184" y="8" width="8" height="8"/><rect class="px" x="192" y="8" width="8" height="8"/><rect class="px" x="200" y="8" width="8" height="8"/><rect class="px" x="208" y="8" width="8" height="8"/>
  <rect class="px" x="200" y="16" width="8" height="8"/>
  <rect class="px" x="192" y="24" width="8" height="8"/>
  <rect class="px" x="184" y="32" width="8" height="8"/>
  <rect class="px" x="176" y="40" width="8" height="8"/>
  <rect class="px" x="176" y="48" width="8" height="8"/><rect class="px" x="184" y="48" width="8" height="8"/><rect class="px" x="192" y="48" width="8" height="8"/><rect class="px" x="200" y="48" width="8" height="8"/><rect class="px" x="208" y="48" width="8" height="8"/>
  <!-- i -->
  <rect class="px" x="232" y="0" width="8" height="8"/>
  <rect class="px" x="232" y="8" width="8" height="8"/>
  <rect class="px" x="232" y="16" width="8" height="8"/>
  <rect class="px" x="232" y="24" width="8" height="8"/>
  <rect class="px" x="232" y="32" width="8" height="8"/>
  <rect class="px" x="232" y="40" width="8" height="8"/>
  <rect class="px" x="232" y="48" width="8" height="8"/>
  <rect class="px" x="232" y="56" width="8" height="8"/>
  <!-- decorative pixels -->
  <rect class="sh" x="260" y="12" width="8" height="8"/>
  <rect class="sh" x="276" y="28" width="8" height="8"/>
  <rect class="sh" x="292" y="44" width="8" height="8"/>
</svg>
