<svg xmlns="http://www.w3.org/2000/svg" viewBox="0 0 165 35" width="165" height="35" role="img" aria-label="PINGZI">
<defs><style>.px{fill:#ff69b4}</style></defs>
<rect class="px" x="0" y="0" width="5" height="5"/>
<rect class="px" x="5" y="0" width="5" height="5"/>
<rect class="px" x="10" y="0" width="5" height="5"/>
<rect class="px" x="15" y="0" width="5" height="5"/>
<rect class="px" x="20" y="0" width="5" height="5"/>
<rect class="px" x="25" y="0" width="5" height="5"/>
<rect class="px" x="0" y="5" width="5" height="5"/>
<rect class="px" x="25" y="5" width="5" height="5"/>
<rect class="px" x="0" y="10" width="5" height="5"/>
<rect class="px" x="25" y="10" width="5" height="5"/>
<rect class="px" x="0" y="15" width="5" height="5"/>
<rect class="px" x="5" y="15" width="5" height="5"/>
<rect class="px" x="10" y="15" width="5" height="5"/>
<rect class="px" x="15" y="15" width="5" height="5"/>
<rect class="px" x="20" y="15" width="5" height="5"/>
<rect class="px" x="25" y="15" width="5" height="5"/>
<rect class="px" x="0" y="20" width="5" height="5"/>
<rect class="px" x="0" y="25" width="5" height="5"/>
<rect class="px" x="0" y="30" width="5" height="5"/>
<rect class="px" x="39" y="0" width="5" height="5"/>
<rect class="px" x="44" y="0" width="5" height="5"/>
<rect class="px" x="49" y="0" width="5" height="5"/>
<rect class="px" x="44" y="5" width="5" height="5"/>
<rect class="px" x="44" y="10" width="5" height="5"/>
<rect class="px" x="44" y="15" width="5" height="5"/>
<rect class="px" x="44" y="20" width="5" height="5"/>
<rect class="px" x="44" y="25" width="5" height="5"/>
<rect class="px" x="39" y="30" width="5" height="5"/>
<rect class="px" x="44" y="30" width="5" height="5"/>
<rect class="px" x="49" y="30" width="5" height="5"/>
<rect class="px" x="58" y="0" width="5" height="5"/>
<rect class="px" x="78" y="0" width="5" height="5"/>
<rect class="px" x="58" y="5" width="5" height="5"/>
<rect class="px" x="63" y="5" width="5" height="5"/>
<rect class="px" x="78" y="5" width="5" height="5"/>
<rect class="px" x="58" y="10" width="5" height="5"/>
<rect class="px" x="68" y="10" width="5" height="5"/>
<rect class="px" x="78" y="10" width="5" height="5"/>
<rect class="px" x="58" y="15" width="5" height="5"/>
<rect class="px" x="73" y="15" width="5" height="5"/>
<rect class="px" x="78" y="15" width="5" height="5"/>
<rect class="px" x="58" y="20" width="5" height="5"/>
<rect class="px" x="78" y="20" width="5" height="5"/>
<rect class="px" x="58" y="25" width="5" height="5"/>
<rect class="px" x="78" y="25" width="5" height="5"/>
<rect class="px" x="58" y="30" width="5" height="5"/>
<rect class="px" x="78" y="30" width="5" height="5"/>
<rect class="px" x="92" y="0" width="5" height="5"/>
<rect class="px" x="97" y="0" width="5" height="5"/>
<rect class="px" x="102" y="0" width="5" height="5"/>
<rect class="px" x="107" y="0" width="5" height="5"/>
<rect class="px" x="87" y="5" width="5" height="5"/>
<rect class="px" x="87" y="10" width="5" height="5"/>
<rect class="px" x="102" y="10" width="5" height="5"/>
<rect class="px" x="107" y="10" width="5" height="5"/>
<rect class="px" x="112" y="10" width="5" height="5"/>
<rect class="px" x="87" y="15" width="5" height="5"/>
<rect class="px" x="112" y="15" width="5" height="5"/>
<rect class="px" x="87" y="20" width="5" height="5"/>
<rect class="px" x="112" y="20" width="5" height="5"/>
<rect class="px" x="92" y="25" width="5" height="5"/>
<rect class="px" x="97" y="25" width="5" height="5"/>
<rect class="px" x="102" y="25" width="5" height="5"/>
<rect class="px" x="107" y="25" width="5" height="5"/>
<rect class="px" x="121" y="0" width="5" height="5"/>
<rect class="px" x="126" y="0" width="5" height="5"/>
<rect class="px" x="131" y="0" width="5" height="5"/>
<rect class="px" x="136" y="0" width="5" height="5"/>
<rect class="px" x="141" y="0" width="5" height="5"/>
<rect class="px" x="141" y="5" width="5" height="5"/>
<rect class="px" x="136" y="10" width="5" height="5"/>
<rect class="px" x="131" y="15" width="5" height="5"/>
<rect class="px" x="126" y="20" width="5" height="5"/>
<rect class="px" x="121" y="25" width="5" height="5"/>
<rect class="px" x="126" y="25" width="5" height="5"/>
<rect class="px" x="131" y="25" width="5" height="5"/>
<rect class="px" x="136" y="25" width="5" height="5"/>
<rect class="px" x="141" y="25" width="5" height="5"/>
<rect class="px" x="150" y="0" width="5" height="5"/>
<rect class="px" x="155" y="0" width="5" height="5"/>
<rect class="px" x="160" y="0" width="5" height="5"/>
<rect class="px" x="155" y="5" width="5" height="5"/>
<rect class="px" x="155" y="10" width="5" height="5"/>
<rect class="px" x="155" y="15" width="5" height="5"/>
<rect class="px" x="155" y="20" width="5" height="5"/>
<rect class="px" x="155" y="25" width="5" height="5"/>
<rect class="px" x="150" y="30" width="5" height="5"/>
<rect class="px" x="155" y="30" width="5" height="5"/>
<rect class="px" x="160" y="30" width="5" height="5"/>
</svg>