<svg xmlns="http://www.w3.org/2000/svg" viewBox="0 0 230 42" width="230" height="42" role="img" aria-label="PINGZI" shape-rendering="crispEdges">
<title>PINGZI</title>
<defs><style>.px{fill:#ff5fb7}</style></defs>
<rect class="px" x="0" y="0" width="6" height="6"/>
<rect class="px" x="6" y="0" width="6" height="6"/>
<rect class="px" x="12" y="0" width="6" height="6"/>
<rect class="px" x="18" y="0" width="6" height="6"/>
<rect class="px" x="0" y="6" width="6" height="6"/>
<rect class="px" x="24" y="6" width="6" height="6"/>
<rect class="px" x="0" y="12" width="6" height="6"/>
<rect class="px" x="24" y="12" width="6" height="6"/>
<rect class="px" x="0" y="18" width="6" height="6"/>
<rect class="px" x="6" y="18" width="6" height="6"/>
<rect class="px" x="12" y="18" width="6" height="6"/>
<rect class="px" x="18" y="18" width="6" height="6"/>
<rect class="px" x="0" y="24" width="6" height="6"/>
<rect class="px" x="0" y="30" width="6" height="6"/>
<rect class="px" x="0" y="36" width="6" height="6"/>
<rect class="px" x="40" y="0" width="6" height="6"/>
<rect class="px" x="46" y="0" width="6" height="6"/>
<rect class="px" x="52" y="0" width="6" height="6"/>
<rect class="px" x="58" y="0" width="6" height="6"/>
<rect class="px" x="64" y="0" width="6" height="6"/>
<rect class="px" x="52" y="6" width="6" height="6"/>
<rect class="px" x="52" y="12" width="6" height="6"/>
<rect class="px" x="52" y="18" width="6" height="6"/>
<rect class="px" x="52" y="24" width="6" height="6"/>
<rect class="px" x="52" y="30" width="6" height="6"/>
<rect class="px" x="40" y="36" width="6" height="6"/>
<rect class="px" x="46" y="36" width="6" height="6"/>
<rect class="px" x="52" y="36" width="6" height="6"/>
<rect class="px" x="58" y="36" width="6" height="6"/>
<rect class="px" x="64" y="36" width="6" height="6"/>
<rect class="px" x="80" y="0" width="6" height="6"/>
<rect class="px" x="104" y="0" width="6" height="6"/>
<rect class="px" x="80" y="6" width="6" height="6"/>
<rect class="px" x="86" y="6" width="6" height="6"/>
<rect class="px" x="104" y="6" width="6" height="6"/>
<rect class="px" x="80" y="12" width="6" height="6"/>
<rect class="px" x="92" y="12" width="6" height="6"/>
<rect class="px" x="104" y="12" width="6" height="6"/>
<rect class="px" x="80" y="18" width="6" height="6"/>
<rect class="px" x="98" y="18" width="6" height="6"/>
<rect class="px" x="104" y="18" width="6" height="6"/>
<rect class="px" x="80" y="24" width="6" height="6"/>
<rect class="px" x="104" y="24" width="6" height="6"/>
<rect class="px" x="80" y="30" width="6" height="6"/>
<rect class="px" x="104" y="30" width="6" height="6"/>
<rect class="px" x="80" y="36" width="6" height="6"/>
<rect class="px" x="104" y="36" width="6" height="6"/>
<rect class="px" x="126" y="0" width="6" height="6"/>
<rect class="px" x="132" y="0" width="6" height="6"/>
<rect class="px" x="138" y="0" width="6" height="6"/>
<rect class="px" x="144" y="0" width="6" height="6"/>
<rect class="px" x="120" y="6" width="6" height="6"/>
<rect class="px" x="120" y="12" width="6" height="6"/>
<rect class="px" x="120" y="18" width="6" height="6"/>
<rect class="px" x="138" y="18" width="6" height="6"/>
<rect class="px" x="144" y="18" width="6" height="6"/>
<rect class="px" x="120" y="24" width="6" height="6"/>
<rect class="px" x="144" y="24" width="6" height="6"/>
<rect class="px" x="120" y="30" width="6" height="6"/>
<rect class="px" x="144" y="30" width="6" height="6"/>
<rect class="px" x="126" y="36" width="6" height="6"/>
<rect class="px" x="132" y="36" width="6" height="6"/>
<rect class="px" x="138" y="36" width="6" height="6"/>
<rect class="px" x="160" y="0" width="6" height="6"/>
<rect class="px" x="166" y="0" width="6" height="6"/>
<rect class="px" x="172" y="0" width="6" height="6"/>
<rect class="px" x="178" y="0" width="6" height="6"/>
<rect class="px" x="184" y="0" width="6" height="6"/>
<rect class="px" x="184" y="6" width="6" height="6"/>
<rect class="px" x="178" y="12" width="6" height="6"/>
<rect class="px" x="172" y="18" width="6" height="6"/>
<rect class="px" x="166" y="24" width="6" height="6"/>
<rect class="px" x="160" y="30" width="6" height="6"/>
<rect class="px" x="160" y="36" width="6" height="6"/>
<rect class="px" x="166" y="36" width="6" height="6"/>
<rect class="px" x="172" y="36" width="6" height="6"/>
<rect class="px" x="178" y="36" width="6" height="6"/>
<rect class="px" x="184" y="36" width="6" height="6"/>
<rect class="px" x="200" y="0" width="6" height="6"/>
<rect class="px" x="206" y="0" width="6" height="6"/>
<rect class="px" x="212" y="0" width="6" height="6"/>
<rect class="px" x="218" y="0" width="6" height="6"/>
<rect class="px" x="224" y="0" width="6" height="6"/>
<rect class="px" x="212" y="6" width="6" height="6"/>
<rect class="px" x="212" y="12" width="6" height="6"/>
<rect class="px" x="212" y="18" width="6" height="6"/>
<rect class="px" x="212" y="24" width="6" height="6"/>
<rect class="px" x="212" y="30" width="6" height="6"/>
<rect class="px" x="200" y="36" width="6" height="6"/>
<rect class="px" x="206" y="36" width="6" height="6"/>
<rect class="px" x="212" y="36" width="6" height="6"/>
<rect class="px" x="218" y="36" width="6" height="6"/>
<rect class="px" x="224" y="36" width="6" height="6"/>
</svg>
